<?xml version="1.0" encoding="utf-8"?>
<!-- Generator: Adobe Illustrator 17.0.0, SVG Export Plug-In . SVG Version: 6.00 Build 0)  -->
<!DOCTYPE svg PUBLIC "-//W3C//DTD SVG 1.1//EN" "http://www.w3.org/Graphics/SVG/1.1/DTD/svg11.dtd">
<svg version="1.1" id="Layer_1" xmlns="http://www.w3.org/2000/svg" xmlns:xlink="http://www.w3.org/1999/xlink" x="0px" y="0px"
	 width="735.653px" height="1071.901px" viewBox="0 0 735.653 1071.901" enable-background="new 0 0 735.653 1071.901"
	 xml:space="preserve">
<g>
	<polygon fill="#174F75" points="735.653,536.494 367.9,0 0,536.494 367.327,1071.901 	"/>
	<polyline fill="#286384" points="361.619,117.487 0,536.494 368.119,1070.635 665.896,637.894 606.346,347.856 520.664,222.859 
		361.619,117.487 	"/>
	<g>
		<polygon fill="#3A86A9" points="460.226,363.025 448.867,374.476 387.789,357.291 383.313,341.385 		"/>
		<path fill="#FFBA4D" d="M507.407,51.709c66.134,18.607,104.662,87.303,86.055,153.437c-12.686,45.088-48.653,77.344-91.217,87.412
			c-5.256,1.243-8.403,4.519-9.888,9.797l-15.509,55.123l-102.803-28.924l15.509-55.123c1.485-5.278,0.549-9.678-3.925-14.11
			c-30.86-30.574-44.263-76.758-31.659-121.557C372.577,71.629,441.273,33.101,507.407,51.709z"/>
		<path fill="#6EB7CE" d="M486.204,324.222l-11.983,42.589c-0.959,3.409-4.5,5.395-7.91,4.436l-90.458-25.451
			c-3.409-0.959-5.395-4.5-4.436-7.91l11.983-42.589L486.204,324.222z"/>
		<path fill="#3A86A9" d="M380.662,306.462c0.063,0.018,0.117,0.05,0.178,0.07l0.005-0.018l89.611,25.213
			c2.082,0.586,3.295,2.749,2.709,4.831s-2.749,3.295-4.831,2.709l-89.611-25.213l0.005-0.018c-0.063-0.014-0.126-0.015-0.188-0.033
			c-2.082-0.586-3.295-2.749-2.709-4.831C376.417,307.089,378.58,305.876,380.662,306.462z"/>
		<path fill="#3A86A9" d="M389.349,327.163c0.063,0.018,88.852,24.999,88.852,24.999c2.082,0.586,3.295,2.749,2.709,4.831
			c-0.586,2.082-2.749,3.295-4.831,2.709c0,0-88.789-24.981-88.852-24.999c-2.082-0.586-3.295-2.749-2.709-4.831
			C385.104,327.79,387.267,326.577,389.349,327.163z"/>
		<circle fill="#FCD683" cx="474.478" cy="168.744" r="109.806"/>
		<path fill="#FFBA4D" d="M497.635,78.008c28.814,8.107,50.605,28.948,61.007,54.711c-11.825-15.931-28.818-28.216-49.394-34.005
			c-49.39-13.896-100.693,14.877-114.589,64.267c-5.789,20.576-4.167,41.481,3.26,59.878c-16.56-22.309-22.98-51.771-14.873-80.584
			C396.942,92.885,448.246,64.111,497.635,78.008z"/>
	</g>
	<path fill="#6EB7CE" d="M296.445,553.519c-4.897,8.969-5.893,19.014-3.574,28.196c-36.959-14.734-88.9,23.765-78.41,55.642
		c13.474,40.947-8.806,57.147-15.344,59.55c-6.537,2.403-15.368-12.869-15.368-12.869c-7.749,27.866,14.311,42.149,14.311,42.149
		c-12.446,3.655-21.591-11.041-21.591-11.041c1.19,32.001,31.095,40.117,31.095,40.117c-10.929,2.244-24.261-2.049-24.261-2.049
		s35.745,49.374,108.664-10.479c68.125-55.918,32.552-124.434,27.58-133.202c17.242,5.139,36.316-2.252,45.284-18.678
		c10.31-18.884,3.359-42.551-15.525-52.862S306.755,534.634,296.445,553.519z"/>
	<path fill="#FCD683" d="M195.423,576.309l78.868-163.921l20.428,15.844l0.498,0.387L216,601.759l46.291,26.78V748.01v0.912
		C262.291,748.922,161.736,688.539,195.423,576.309z"/>
	<path fill="#174F75" d="M208.986,495.119l-1.514,30.841c0,0-1.829,27.749,13.806,33.749c12.912,4.955,22.487,6.76,36.867,8.015
		c15.813,1.38,13.648-48.508,12.243-57.508L208.986,495.119z"/>
	<path fill="#FFBA4D" d="M337.373,748.922v75.237c0,6.638-5.381,12.019-12.02,12.019c-6.638,0-12.019-5.381-12.019-12.019v-75.237
		H337.373z"/>
	<path fill="#FFBA4D" d="M216,601.759l79.217-173.141l-0.498-0.387l234.184,51.783v140.619l-0.219-0.024
		c-4.501,88.774-77.905,159.369-167.798,159.369c-36.839,0-70.902-11.865-98.595-31.97V628.539L216,601.759z"/>
	<polygon fill="#6EB7CE" points="377.27,550.539 447.736,561.872 444.403,546.539 376.269,526.483 	"/>
	<path fill="#3A86A9" d="M558.484,518.348c-16.665-36.177-36.432-50.935-55.294-51.763c0.361-0.6,0.666-1.223,0.876-1.881
		c6.011-18.826-52.612-54.36-130.938-79.367c-78.326-25.007-146.694-30.018-152.704-11.193
		c-6.011,18.826,52.612,54.36,130.938,79.367c49.351,15.757,94.731,23.566,123.069,22.485
		c-30.806,21.856-51.337,77.307-36.692,119.877c26.858,78.064-15.392,109.662-27.848,114.431
		c-12.456,4.769-29.759-24.248-29.759-24.248c-14.122,53.563,28.49,80.346,28.49,80.346c-23.739,7.321-41.63-20.587-41.63-20.587
		c3.104,61.25,60.581,76.021,60.581,76.021c-20.871,4.579-41.598,3.558-41.598,3.558s70.033,65.389,153.673-27.995
		C607.698,721.421,558.484,518.348,558.484,518.348z"/>
	
		<ellipse transform="matrix(-0.9853 -0.1711 0.1711 -0.9853 683.3657 1141.6495)" fill="#3A86A9" cx="390.875" cy="541.379" rx="9.528" ry="2.429"/>
	<path fill="#174F75" d="M275.861,510.306l-2.509,35.327c0,0-4.603,36.257,21.314,43.13c21.402,5.675,37.273,7.743,61.107,9.181
		c26.211,1.581,22.621-55.564,20.292-65.873L275.861,510.306z"/>
	<polygon fill="#6EB7CE" points="376.269,526.483 376.269,526.483 208.57,487.476 208.57,497.051 377.269,538.483 	"/>
	<polygon fill="#3A86A9" points="376.269,532.38 376.269,533.38 208.57,493.372 208.57,495.16 376.269,536.592 	"/>
	<path fill="#174F75" d="M326.148,669.815c0,0-70.816,6.125-106.224-17.026C219.924,652.789,281.207,738.591,326.148,669.815z"/>
	<path fill="#6EB7CE" d="M205.143,835.203c18.748-10.953,39.65-18.619,61.931-22.17v111.634L205.143,835.203z"/>
	<path fill="#3A86A9" d="M267.074,813.033c8.818-1.405,17.849-2.169,27.045-2.241c-1.673,4.009-2.601,8.407-2.601,13.023
		c0,18.687,15.148,33.835,33.835,33.835c18.687,0,33.835-15.149,33.835-33.835c0-0.478-0.016-0.951-0.036-1.424
		c49.071,18.605,87.859,58.102,105.508,107.633l-96.541,140.612L267.074,924.667V813.033z"/>
</g>
</svg>
