<?xml version="1.0" encoding="utf-8"?>
<!-- Generator: Adobe Illustrator 17.0.0, SVG Export Plug-In . SVG Version: 6.00 Build 0)  -->
<!DOCTYPE svg PUBLIC "-//W3C//DTD SVG 1.1//EN" "http://www.w3.org/Graphics/SVG/1.1/DTD/svg11.dtd">
<svg version="1.1" id="Layer_1" xmlns="http://www.w3.org/2000/svg" xmlns:xlink="http://www.w3.org/1999/xlink" x="0px" y="0px"
	 width="735.653px" height="1080.257px" viewBox="0 0 735.653 1080.257" enable-background="new 0 0 735.653 1080.257"
	 xml:space="preserve">
<g>
	<polygon fill="#174F75" points="0,541.327 365.327,0 735.653,541.327 365.327,1079.735 	"/>
	<path fill="#3A86A9" d="M416.064,1011.166V687.123c66.891,0.821,126.936,30.057,168.63,76.193L416.064,1011.166z"/>
	<path fill="#6EB7CE" d="M366.326,1080.257L198.214,833.168c33.872-85.563,117.348-146.082,214.962-146.082
		c0.966,0,1.925,0.024,2.888,0.036v323.017L366.326,1080.257z"/>
	<circle fill="#174F75" cx="416.064" cy="694.381" r="33.814"/>
	<circle fill="#FFBA4D" cx="416.064" cy="467.726" r="170.216"/>
	<path fill="#FCD683" d="M480.526,400.319l20.547,127.413l-41.095,10.52v93.69c0,0-106.366,33.067-170.063-49.935
		c-22.646-29.51-44.546-58.729-44.541-119.164c0.004-57.655,0.473-102.002,0.473-102.002L480.526,400.319z"/>
	<path fill="#FCD683" d="M429.065,632.891v61.242c0,7.36-5.966,13.326-13.326,13.326c-7.359,0-13.326-5.966-13.326-13.326v-61.242
		H429.065z"/>
	<path fill="#174F75" d="M403.73,458.689c6.723,0,12.173,5.45,12.173,12.173h-24.346
		C391.557,464.139,397.008,458.689,403.73,458.689z"/>
	<path fill="#174F75" d="M529.586,458.689c6.723,0,12.173,5.45,12.173,12.173h-24.346
		C517.413,464.139,522.863,458.689,529.586,458.689z"/>
	<path fill="#174F75" d="M442.917,590.472c0,0-53.337-14.405-73.018-40.747C369.899,549.725,391.771,628.708,442.917,590.472z"/>
	<path fill="#3A86A9" d="M542.96,283.735l19.255,92.437c4.055,19.467-63.554,50.016-151.009,68.233s-161.638,17.203-165.693-2.264
		l-19.255-92.437L542.96,283.735z"/>
	<path fill="#6EB7CE" d="M537.421,257.141l19.255,92.437c4.055,19.467-63.554,50.016-151.009,68.233s-161.638,17.203-165.693-2.264
		l-19.255-92.437L537.421,257.141z"/>
	<polygon fill="#3A86A9" points="140.895,332.554 372.792,232.644 703.559,231.347 705.707,241.664 409.874,410.668 109.78,378.659 
			"/>
	<polygon fill="#6EB7CE" points="143.538,328.638 370.643,222.327 703.559,231.347 407.725,400.351 116.51,368.687 	"/>
	<polygon fill="#3A86A9" points="201.159,378.716 205.918,388.977 394.141,299.838 389.382,289.576 	"/>
	<g>
		
			<rect x="201.172" y="381.203" transform="matrix(-1 0.0016 -0.0016 -1 414.4711 1024.6904)" fill="#3A86A9" width="11.311" height="262.615"/>
		<g>
			<circle fill="#6EB7CE" cx="207.633" cy="600.951" r="21.406"/>
			<path fill="#6EB7CE" d="M227.474,592.918c0,0,8.301,33.338,10.587,57.889c0,0-42.285,12.406-63.385-7.63l12.248-47.646
				L227.474,592.918z"/>
			<path fill="#3A86A9" d="M194.643,583.938c0,0,16.564-5.118,16.702,15.51c0.103,15.437-4.001,55.173-4.001,55.173
				s16.353,0.608,32.064-4.36c0,0-3.23-24.855-9.186-54.33C217.742,565.111,194.643,583.938,194.643,583.938z"/>
		</g>
	</g>
	<g>
		
			<ellipse transform="matrix(-0.979 0.2039 -0.2039 -0.979 825.8466 510.3379)" fill="#174F75" cx="386.63" cy="297.718" rx="23.023" ry="7.41"/>
		
			<ellipse transform="matrix(-0.979 0.2039 -0.2039 -0.979 821.428 496.4504)" fill="#3A86A9" cx="385.136" cy="290.547" rx="28.651" ry="9.221"/>
	</g>
</g>
</svg>
