<?xml version="1.0" encoding="utf-8"?>
<!-- Generator: Adobe Illustrator 17.0.0, SVG Export Plug-In . SVG Version: 6.00 Build 0)  -->
<!DOCTYPE svg PUBLIC "-//W3C//DTD SVG 1.1//EN" "http://www.w3.org/Graphics/SVG/1.1/DTD/svg11.dtd">
<svg version="1.1" id="Layer_1" xmlns="http://www.w3.org/2000/svg" xmlns:xlink="http://www.w3.org/1999/xlink" x="0px" y="0px"
	 width="735.653px" height="1081.735px" viewBox="0 0 735.653 1081.735" enable-background="new 0 0 735.653 1081.735"
	 xml:space="preserve">
<g>
	<polygon fill="#174F75" points="735.653,541.327 370.327,0 0,541.327 370.327,1079.735 	"/>
	<path fill="#FFBA4D" d="M223.256,596.759v75.237c0,6.638,5.381,12.019,12.02,12.019c6.638,0,12.019-5.381,12.019-12.019v-75.237
		H223.256z"/>
	<path fill="#6EB7CE" d="M546.054,639.436c-2.417,14.774-15.235,26.05-30.693,26.05c-17.181,0-31.109-13.928-31.109-31.109
		c0-3.667,0.639-7.185,1.805-10.452c-1.449-0.046-2.897-0.089-4.353-0.089c-57.785,0-107.963,32.537-133.238,80.284
		c-23.078-17.842-50.779-29.994-81.001-34.35c0.023,0.492,0.037,0.986,0.037,1.484c0,17.181-13.928,31.109-31.108,31.109
		c-17.181,0-31.109-13.928-31.109-31.109c0-1.329,0.093-2.635,0.254-3.92c-43.469-0.71-91.336,0.949-102.738,28.516l209.306,304.304
		c0.222-0.097,0.441-0.2,0.662-0.298l55.743,81.878L470.78,929.258c0.281,0.025,0.561,0.057,0.843,0.08l147.375-217.196
		C603.809,681.626,577.683,655.231,546.054,639.436z"/>
	<path fill="#3A86A9" d="M546.349,637.038c-1.351,15.934-14.704,28.448-30.987,28.448c-3.489,0-6.839-0.583-9.971-1.642
		l-135.135,415.293L618.998,713.25C618.998,713.25,609.046,661.434,546.349,637.038z"/>
	<path fill="#3A86A9" d="M267.358,668.279c0.093,0.979,0.145,1.971,0.145,2.975c0,17.181-13.928,31.109-31.108,31.109v181.754
		l133.861,195.019l13.761-337.984C384.017,701.874,364.917,662.662,267.358,668.279z"/>
	<path fill="#FFBA4D" d="M549.812,561.699l-22.345-6.806l-22.04,72.366c-1.284,1.912-2.034,4.212-2.034,6.688
		c0,6.638,5.381,12.02,12.019,12.02c6.079,0,11.09-4.517,11.894-10.375L549.812,561.699z"/>
	<path fill="#FCD683" d="M189.055,474.482l41.493-183.959c-20.146,0-40.292,0-52.921,0c-30.323,0-54.904,24.582-54.904,54.904
		c0,19.173-22.637,105.961-22.637,146.438c0,72.052,58.41,130.462,130.462,130.462l34.885-147.846H189.055z"/>
	<path fill="#FCD683" d="M230.548,622.328c12.47,0,24.53-1.752,35.95-5.019L230.548,622.328z"/>
	<path fill="#FFBA4D" d="M361.01,491.866c0-40.477-22.637-127.265-22.637-146.438c0-30.323-24.582-54.904-54.904-54.904
		c-12.629,0-32.775,0-52.921,0l-41.493,183.959h76.378l-34.885,147.846l35.95-5.019C321.067,601.699,361.01,551.448,361.01,491.866z
		"/>
	<path fill="#174F75" d="M286.012,383.784c-6.064,0-10.979,4.915-10.979,10.979h21.959
		C296.992,388.699,292.076,383.784,286.012,383.784z"/>
	<path fill="#174F75" d="M172.498,383.784c-6.063,0-10.979,4.915-10.979,10.979h21.959
		C183.477,388.699,178.561,383.784,172.498,383.784z"/>
	<path fill="#174F75" d="M205.286,539.883c0,0,49.645,4.294,74.468-11.936C279.754,527.947,236.791,588.098,205.286,539.883z"/>
	<path fill="#3A86A9" d="M356.649,449.279l14.758,90.604l-21.959,18.719c0,0,16.23,73.409-34.37,73.409s-178.005,0-178.005,0
		s-27.205,0.208-18.64-73.409l-27.714-17.957l13.728-91.366l57.071,50.026v71.604h141.149v-71.604L356.649,449.279z"/>
	<rect x="161.519" y="499.305" fill="#3A86A9" width="147.514" height="24.823"/>
	<path fill="#3A86A9" d="M558.072,310.705c-67.54-6.747-127.762,42.536-134.509,110.076c-1.727,17.288,0.225,34.092,5.207,49.647
		c-3.79,2.929-7.336,4.396-9.35,4.838c-6.802,1.497-13.486-14.829-13.486-14.829c-11.446,26.562,8.479,43.698,8.479,43.698
		c-12.826,1.938-19.899-13.859-19.899-13.859c-3.148,31.868,25.385,43.953,25.385,43.953c-11.132,0.746-21.756-1.389-21.756-1.389
		s29.333,36.97,77.228,0.854c16.695,11.708,36.533,19.424,58.268,21.595c67.54,6.747,127.761-42.536,134.508-110.076
		C674.895,377.673,625.612,317.452,558.072,310.705z"/>
	<path fill="#3A86A9" d="M318.711,273.991c-10.218,0-19.512,3.939-26.461,10.375c-4.778-39.5-63.459-66.64-86.412-42.158
		c-29.482,31.448-54.378,19.655-59.62,15.069c-5.242-4.586,3.931-19.655,3.931-19.655c-28.172,6.552-30.137,32.758-30.137,32.758
		c-9.172-9.172-0.655-24.241-0.655-24.241c-27.517,16.379-20.31,46.517-20.31,46.517c-7.207-8.517-9.828-22.275-9.828-22.275
		s-26.207,55.034,61.269,90.354c81.725,32.998,124.815-31.058,130.128-39.623c3.752,17.596,19.379,30.795,38.094,30.795
		c21.516,0,38.958-17.442,38.958-38.958S340.227,273.991,318.711,273.991z"/>
	<circle fill="#FCD683" cx="543.018" cy="461.407" r="117.927"/>
	<path fill="#FFBA4D" d="M560.297,344.755l-46.107,113.773l43.093,4.305l-35.626,114.552c0,0,71.202,16.861,118.417-48.969
		S652.917,360.024,560.297,344.755z"/>
	<path fill="#174F75" d="M584.862,436.893c-6.033-0.603-11.413,3.8-12.016,9.834l21.85,2.183
		C595.298,442.876,590.895,437.496,584.862,436.893z"/>
	<path fill="#174F75" d="M495.203,427.937c-6.033-0.603-11.413,3.8-12.016,9.834l21.85,2.183
		C505.639,433.919,501.236,428.54,495.203,427.937z"/>
	<path fill="#174F75" d="M501.358,503.86c0,0,48.973,9.208,75.286-4.475C576.643,499.386,527.915,554.969,501.358,503.86z"/>
	<path fill="#3A86A9" d="M684.573,417.771c-8.702-18.89-19.023-26.596-28.872-27.028c0.188-0.313,0.348-0.639,0.458-0.982
		c3.139-9.83-27.472-28.384-68.37-41.442s-76.597-15.674-79.735-5.845c-3.139,9.83,27.472,28.384,68.37,41.442
		c25.769,8.228,49.464,12.305,64.261,11.741c-16.085,11.412-26.806,40.366-19.159,62.594c14.024,40.762-8.037,57.261-14.541,59.751
		s-15.539-12.661-15.539-12.661c-7.374,27.968,14.876,41.953,14.876,41.953c-12.396,3.823-21.737-10.75-21.737-10.75
		c1.621,31.982,31.633,39.695,31.633,39.695c-10.898,2.391-21.721,1.858-21.721,1.858s36.568,34.143,80.241-14.618
		C710.27,523.807,684.573,417.771,684.573,417.771z"/>
</g>
</svg>
