<?xml version="1.0" encoding="utf-8"?>
<!-- Generator: Adobe Illustrator 17.0.0, SVG Export Plug-In . SVG Version: 6.00 Build 0)  -->
<!DOCTYPE svg PUBLIC "-//W3C//DTD SVG 1.1//EN" "http://www.w3.org/Graphics/SVG/1.1/DTD/svg11.dtd">
<svg version="1.1" id="Layer_1" xmlns="http://www.w3.org/2000/svg" xmlns:xlink="http://www.w3.org/1999/xlink" x="0px" y="0px"
	 width="750.069px" height="1071.901px" viewBox="0 0 750.069 1071.901" enable-background="new 0 0 750.069 1071.901"
	 xml:space="preserve">
<polygon fill="#174F75" points="735.653,536.494 367.9,0 0,536.494 367.327,1071.901 "/>
<polygon fill="#286384" points="342.787,479.106 182.69,806.09 367.327,1071.901 660.298,646.032 540.596,453.026 "/>
<g>
	<path fill="#FCD683" d="M126.217,720.465l69.492,101.289c0,0,43.967-4.139,107.128-44.433l0.747-179.663
		C286.781,637.358,229.816,696.096,126.217,720.465z"/>
	<path fill="#FFBA4D" d="M426.263,589.13l-28.726-40.75l-82.999,10.688c0,0-1.459,16.154-10.955,38.591l-0.747,179.663
		C356.409,743.145,410.248,685.496,426.263,589.13z"/>
</g>
<g>
	<path fill="#FFBA4D" d="M750.069,384.143l-1.387,27.897c0,0-97.184,188.885-253.431,244.613
		c-156.246,55.728-173.56-42.572-173.56-42.572l68.81-50.84L750.069,384.143z"/>
	<path fill="#FFBA4D" d="M738.89,244.732l-1.144,23.018c0,0-47.923,92.653-80.429,132.612
		c-32.506,39.958-48.198,34.553-48.198,34.553l23.62-67.461L738.89,244.732z"/>
	<path fill="#FFBA4D" d="M648.377,158.382l-1.391,27.98c0,0-26.279,120.044-53.139,162.426l-25.625,15.459
		c0,0,16.396-89.585,17.495-90.03C586.815,273.771,648.377,158.382,648.377,158.382z"/>
	<path fill="#FFBA4D" d="M519.65,165.91l8.955,23.176c0,0-8.125,120.131-30.924,167.427l-24.966,17.107
		c0,0-5.426-55.209-5.266-58.43C467.609,311.969,519.65,165.91,519.65,165.91z"/>
	<path fill="#FFBA4D" d="M357.412,262.586l12.872,15.486c0,0,15.224,61.786,13.666,114.757l-22.354,26.165L357.412,262.586z"/>
	<path fill="#FCD683" d="M442.504,173.163c0,0,23.677-27.578,77.146-7.253c0,0-6.782,111.702-46.935,207.71
		S398.62,528.512,348.381,599.628l-71.833-47.802C276.547,551.826,435.204,347.136,442.504,173.163z"/>
	<path fill="#FCD683" d="M566.815,152.918c0,0,32.401-21.441,81.562,5.464c0,0-46.785,211.946-177.751,347.061l-86.283-23.129
		C384.343,482.314,518.297,352.308,566.815,152.918z"/>
	<path fill="#FCD683" d="M660.282,222.305c0,0,36.173-14.178,78.608,22.427c0,0-90.144,197.443-246.507,302.128l-79.524-40.69
		C412.86,506.17,571.074,407.108,660.282,222.305z"/>
	<path fill="#FCD683" d="M701.288,354.129c0,0,35.29,5.728,48.781,30.014c0,0-86.049,201.992-268.836,267.732
		c0,0-148.038,55.125-168.436-60.879c0,0,89.792-264.692,250.004-136.584C562.801,454.412,632.355,440.214,701.288,354.129z"/>
	<path fill="#FCD683" d="M289.483,278.364c0,0,34.676-23.342,67.929-15.778c0,0,15.669,81.309,12.106,142.274
		c0,0,89.922,74.172,14.035,167.519s-134.66,10.694-130.991-22.216C256.231,517.253,307.198,411.209,289.483,278.364z"/>
</g>
<path fill="#3A86A9" d="M337.205,415.789c-63.712,90.483,89.124,180.168,110.52,192.114l-0.045-157.805
	C436.362,429.317,385.949,346.564,337.205,415.789z"/>
<path fill="#174F75" d="M538.1,400.621c-65.63-42.522-90.421,49.477-90.421,49.477l0.045,157.805
	c1.586,0.885,2.453,1.346,2.453,1.346C560.464,551.951,603.73,443.143,538.1,400.621z"/>
<path fill="#6EB7CE" d="M480.466,477.606c-23.93-15.504-32.969,18.04-32.969,18.04s-0.318-0.66-0.915-1.755
	c-4.126-7.577-21.594-35.996-39.367-10.755c-23.231,32.992,32.497,65.693,40.298,70.049c0.578,0.323,0.894,0.491,0.894,0.491
	C488.62,532.784,504.396,493.11,480.466,477.606z"/>
<path fill="#FCD683" d="M319.902,615.429v150.164c0,0-23.822,16.056-29.118,19.127l7.779-176.817L319.902,615.429z"/>
</svg>
