<?xml version="1.0" encoding="utf-8"?>
<!-- Generator: Adobe Illustrator 17.0.0, SVG Export Plug-In . SVG Version: 6.00 Build 0)  -->
<!DOCTYPE svg PUBLIC "-//W3C//DTD SVG 1.1//EN" "http://www.w3.org/Graphics/SVG/1.1/DTD/svg11.dtd">
<svg version="1.1" id="Layer_1" xmlns="http://www.w3.org/2000/svg" xmlns:xlink="http://www.w3.org/1999/xlink" x="0px" y="0px"
	 width="770.728px" height="1079.735px" viewBox="0 0 770.728 1079.735" enable-background="new 0 0 770.728 1079.735"
	 xml:space="preserve">
<polygon fill="#98D7E5" points="748.057,573.804 769.859,541.934 762.05,530.581 738.608,564.451 "/>
<polygon fill="#174F75" points="35.075,541.327 400.402,0 770.728,541.327 400.402,1079.735 "/>
<path fill="#3A86A9" d="M503.37,931.476l266.489-389.542L499.851,149.376c-30.976-7.625-63.358-11.673-96.687-11.673
	C180.502,137.704,0,318.206,0,540.867s180.502,403.164,403.164,403.164C437.757,944.031,471.331,939.671,503.37,931.476z"/>
<path fill="#98D7E5" d="M245.544,347.825l53.851,117.798h70.679l-33.657,65.169l-77.41,64.013l30.291,79.49l-43.754,40.388v53.851
	l-60.582,20.194l-67.313-111.067v-82.855l-37.022-64.013v-24.781l-63.948-3.366L9.85,452.161c0,0,17.821-97.132,81.604-165.918
	L245.544,347.825z"/>
<polygon fill="#98D7E5" points="343.148,667.564 320.387,687.758 331.768,744.974 343.148,721.414 "/>
<polygon fill="#98D7E5" points="689.813,491.71 689.813,530.793 671.305,548.918 721.878,602.76 725.147,547.235 "/>
<path fill="#98D7E5" d="M331.768,314.707l82.103,49.127l30.286-15.143l47.112,6.73l37.017,30.287l25.239,94.224h20.191
	l13.461-55.525l63.938-47.112l58.89,114.416l21.015-9.698L499.831,144.987c-19.011-4.243-33.801-4.936-33.801-4.936
	c-241.868-37.009-361.755,129.971-361.755,129.971l25.239,17.221l38.699-32.777v32.777l37.017,9.287l26.921-42.064v32.777h55.525
	L250.66,328.5l6.73,21.874l62.997,99.272l105.261-55.525L331.768,314.707z"/>
<path fill="#98D7E5" d="M497.484,940.079l8.809-12.877l-75.598,4.137l-137.971-2.572c0,0,63.097,26.231,128.717,26.231
	C455.176,954.999,480.66,947.433,497.484,940.079z"/>
<g>
	<polygon fill="#FFBA4D" points="263.545,497.214 186.523,623.556 66.997,550.69 	"/>
	<path fill="#FFBA4D" d="M353.254,136.51c0,0-37.249,2.013-112.935,51.096c-136.001,88.198-6.439,333.078-6.439,333.078
		L103.69,552.81c0,0-50.703-190.02,44.659-318.849C222.404,133.919,301.922,127.632,353.254,136.51z"/>
</g>
<g>
	<polygon fill="#FCD683" points="416.149,600.174 594.187,552.986 638.829,721.418 	"/>
	<path fill="#FCD683" d="M85.176,788.728c0,0,73.95,127.348,220.667,85.663c154.864-44,156.864-258.512,156.864-258.512l138,74.512
		c0,0-74.796,170.053-202.659,224C270.707,968.117,133.047,927.202,85.176,788.728z"/>
</g>
<g>
	<polygon fill="#FCD683" points="240.319,487.524 163.297,613.866 43.771,541 	"/>
	<path fill="#FCD683" d="M354.254,137.51c0,0-50.184,0.984-125.87,50.067c-136.001,88.198-17.731,323.417-17.731,323.417
		L80.464,543.12c0,0-50.703-190.02,44.659-318.849C199.177,124.229,313.255,118.939,354.254,137.51z"/>
</g>
<polygon fill="#FFBA4D" points="393.03,589.056 571.068,541.867 615.711,710.3 "/>
<path fill="#FFBA4D" d="M78.176,778.728c0,0,66.869,115.545,204.549,79.545C438.481,817.546,439.589,599.76,439.589,599.76
	l138,74.512c0,0-74.796,170.053-202.659,224C247.589,951.999,126.047,917.202,78.176,778.728z"/>
</svg>
