<?xml version="1.0" encoding="utf-8"?>
<!-- Generator: Adobe Illustrator 17.0.0, SVG Export Plug-In . SVG Version: 6.00 Build 0)  -->
<!DOCTYPE svg PUBLIC "-//W3C//DTD SVG 1.1//EN" "http://www.w3.org/Graphics/SVG/1.1/DTD/svg11.dtd">
<svg version="1.1" id="Layer_1" xmlns="http://www.w3.org/2000/svg" xmlns:xlink="http://www.w3.org/1999/xlink" x="0px" y="0px"
	 width="2048px" height="2048px" viewBox="0 0 2048 2048" enable-background="new 0 0 2048 2048" xml:space="preserve">
<g>
	<g>
		<path fill="#FFFFFF" d="M381.393,845.682l-40.279,34.527l-78.088-91.096l35.803-30.69c6.229-5.34,12.236-9.208,18.023-11.607
			c5.787-2.395,10.899-3.311,15.34-2.749c8.146,1.157,14.752,4.689,19.816,10.596c6.107,7.125,8.325,14.419,6.654,21.88
			c-0.537,2.571-0.984,4.273-1.337,5.102c-0.353,0.832-1.02,2.271-2.004,4.319c6.746-3.671,13.466-5.023,20.158-4.054
			c6.692,0.972,12.497,4.322,17.412,10.057c5.437,6.343,8.047,13.828,7.831,22.453C400.471,824.431,394.029,834.85,381.393,845.682z
			 M315.176,808.393l9.74-8.35c5.704-4.889,9.418-9.125,11.138-12.712c1.722-3.585,0.85-7.399-2.614-11.439
			c-3.462-4.039-7.025-5.62-10.686-4.743c-3.665,0.88-8.521,3.913-14.575,9.103l-9.873,8.462L315.176,808.393z M346.903,845.403
			l14.083-12.072c5.878-5.039,9.674-9.536,11.386-13.49c1.711-3.953,0.761-8.036-2.853-12.251
			c-3.611-4.214-7.552-5.657-11.822-4.335c-4.27,1.325-9.827,4.918-16.672,10.786l-12.109,10.38L346.903,845.403z"/>
	</g>
	<g>
		<path fill="#FFFFFF" d="M444.361,796.077l-66.321-99.989l22.538-14.949l53.133,80.106l43.054-28.557l13.189,19.884
			L444.361,796.077z"/>
	</g>
	<g>
		<path fill="#FFFFFF" d="M551.603,694.811c6.502,2.979,13.169,2.774,20.007-0.608c6.837-3.382,11.019-8.544,12.548-15.494
			c1.527-6.946,0.162-14.729-4.1-23.345l-29.374-59.391l24.244-11.99l29.752,60.16c7.712,15.593,9.284,29.72,4.715,42.383
			c-4.567,12.665-13.638,22.352-27.209,29.064c-13.573,6.713-26.815,8.028-39.728,3.946c-12.916-4.079-23.202-13.866-30.863-29.356
			l-29.754-60.16l24.244-11.989l29.372,59.391C539.721,686.038,545.102,691.835,551.603,694.811z"/>
	</g>
	<g>
		<path fill="#FFFFFF" d="M711.651,534.85l7.56,22.63l-57.222,19.118l7.833,23.444l51.467-17.196l7.235,21.653l-51.467,17.196
			l7.885,23.607l59.032-19.723l7.507,22.468l-84.684,28.292l-38.02-113.8L711.651,534.85z"/>
	</g>
	<g>
		<path fill="#FFFFFF" d="M927.01,511.082c12.745,8.984,20.257,22.735,22.53,41.247c2.272,18.514-1.522,33.853-11.382,46.016
			c-9.86,12.165-26.262,19.653-49.205,22.469l-41.128,5.049l-14.618-119.09l42.501-5.218
			C897.159,498.922,914.26,502.098,927.01,511.082z M915.997,584.29c5.841-6.944,8.046-16.264,6.611-27.963
			c-1.436-11.698-5.841-20.296-13.212-25.789c-7.37-5.494-17.881-7.403-31.532-5.727l-14.97,1.838l8.889,72.409l17.036-2.091
			C901.093,595.458,910.151,591.234,915.997,584.29z"/>
	</g>
	<g>
		<path fill="#FFFFFF" d="M992.812,492.44l27.043-0.438l1.945,119.968l-27.043,0.438L992.812,492.44z"/>
	</g>
	<g>
		<path fill="#FFFFFF" d="M1151.792,619.885l-8.805-26.856l-50.575-4.734l-13.636,24.757l-28.654-2.682l63.31-114.583l26.065,2.439
			l40.949,124.341L1151.792,619.885z M1123.224,532.562l-18.437,33.272l30.208,2.827L1123.224,532.562z"/>
	</g>
	<g>
		<path fill="#FFFFFF" d="M1331.062,581.271l-48.23,55.2l-15.604-4.062l-15.02-71.667l-19.03,73.09l-26.172-6.815l30.231-116.113
			l35.4,9.216l13.591,71.651l46.976-55.881l35.232,9.173l-30.231,116.113l-26.172-6.814L1331.062,581.271z"/>
	</g>
	<g>
		<path fill="#FFFFFF" d="M1477.705,703.018c-16.038,5.759-32.222,4.956-48.551-2.409c-16.332-7.366-27.647-18.966-33.944-34.798
			c-6.299-15.834-5.825-31.782,1.422-47.847c7.245-16.063,18.886-26.977,34.925-32.736c16.035-5.76,32.219-4.957,48.551,2.41
			c16.331,7.365,27.645,18.965,33.944,34.798c6.297,15.833,5.823,31.784-1.422,47.847
			C1505.385,686.347,1493.741,697.258,1477.705,703.018z M1487.468,659.027c4.398-9.753,4.989-19.498,1.773-29.234
			c-3.216-9.736-9.434-16.683-18.652-20.841c-9.221-4.158-18.541-4.22-27.969-0.187c-9.426,4.034-16.34,10.928-20.739,20.681
			c-4.4,9.755-4.98,19.473-1.739,29.156c3.239,9.684,9.467,16.604,18.688,20.762c9.218,4.158,18.53,4.247,27.932,0.265
			C1476.166,675.649,1483.067,668.781,1487.468,659.027z"/>
	</g>
	<g>
		<path fill="#FFFFFF" d="M1655.47,689.595l22.62,14.826l-65.775,100.348l-22.619-14.826l-7.068-94.528l-41.217,62.879
			l-22.618-14.826l65.775-100.348l21.17,13.875l7.388,97.201L1655.47,689.595z"/>
	</g>
	<g>
		<path fill="#FFFFFF" d="M1784.696,815.373c1.613,15.511-3.806,30.213-16.258,44.098c-12.452,13.888-26.503,21.117-42.15,21.687
			c-15.649,0.572-32.077-6.861-49.287-22.293l-30.848-27.662l80.103-89.33l31.882,28.589
			C1774.227,784.89,1783.082,799.861,1784.696,815.373z M1722.303,855.22c9.073-0.164,17.544-4.633,25.413-13.408
			c7.867-8.774,11.448-17.746,10.742-26.911c-0.71-9.167-6.183-18.339-16.421-27.521l-11.23-10.069l-48.703,54.313l12.779,11.458
			C1704.089,851.337,1713.227,855.382,1722.303,855.22z"/>
	</g>
	<path fill="#FFFFFF" d="M627.702,1564.234l-8.269,18.781h-14.883l36.382-82.567h14.883l36.382,82.567h-14.883l-8.269-18.781
		H627.702z M663.376,1551.358l-15.003-34.02l-15.001,34.02H663.376z"/>
	<path fill="#FFFFFF" d="M725.508,1559.863l18.428-59.415h12.521l18.425,59.415l20.79-59.415h15.001l-28.822,82.567h-13.819
		l-17.366-56.581h-0.944l-17.363,56.581h-13.821l-28.822-82.567h15.001L725.508,1559.863z"/>
	<path fill="#FFFFFF" d="M831.346,1564.234l-8.269,18.781h-14.883l36.382-82.567h14.883l36.382,82.567h-14.883l-8.269-18.781
		H831.346z M867.02,1551.358l-15.003-34.02l-15.001,34.02H867.02z"/>
	<path fill="#FFFFFF" d="M973.211,1527.261c0,13.626-5.948,22.208-17.837,25.75l21.615,30.004h-17.717l-19.728-27.76h-18.308v27.76
		h-13.939v-82.567h30.711c12.6,0,21.617,2.124,27.051,6.378C970.493,1511.078,973.211,1517.891,973.211,1527.261z M954.665,1538.955
		c2.833-2.439,4.251-6.357,4.251-11.752c0-5.393-1.459-9.096-4.369-11.105c-2.915-2.007-8.113-3.011-15.594-3.011h-17.717v29.531
		H938.6C946.473,1542.617,951.829,1541.397,954.665,1538.955z"/>
	<path fill="#FFFFFF" d="M1055.776,1511.255c7.952,7.205,11.932,17.229,11.932,30.062c0,12.838-3.859,22.996-11.576,30.478
		c-7.719,7.481-19.531,11.221-35.438,11.221H993.29v-82.567h28.348C1036.442,1500.448,1047.821,1504.051,1055.776,1511.255z
		 M1053.649,1541.673c0-18.901-10.826-28.351-32.482-28.351h-13.939v56.581h15.474c10,0,17.659-2.382,22.975-7.147
		C1050.991,1557.993,1053.649,1550.966,1053.649,1541.673z"/>
	<path fill="#FFFFFF" d="M1110.644,1511.315c-4.057,0-7.383,0.827-9.981,2.48c-2.598,1.653-3.898,4.155-3.898,7.5
		c0,3.348,1.3,5.907,3.898,7.678c2.598,1.771,8.13,3.682,16.597,5.729c8.464,2.047,14.842,4.922,19.137,8.623
		c4.29,3.703,6.436,9.154,6.436,16.359c0,7.207-2.716,13.054-8.149,17.544c-5.434,4.487-12.562,6.731-21.381,6.731
		c-12.915,0-24.374-4.448-34.373-13.347l8.74-10.512c8.346,7.246,17.01,10.865,25.988,10.865c4.489,0,8.051-0.961,10.69-2.894
		c2.636-1.927,3.958-4.489,3.958-7.678s-1.24-5.669-3.723-7.44c-2.48-1.771-6.753-3.386-12.816-4.842
		c-6.063-1.456-10.67-2.795-13.818-4.018c-3.151-1.219-5.948-2.814-8.387-4.782c-4.883-3.701-7.325-9.37-7.325-17.01
		c0-7.637,2.776-13.525,8.33-17.659c5.552-4.136,12.42-6.203,20.612-6.203c5.275,0,10.512,0.868,15.71,2.6
		c5.196,1.733,9.685,4.174,13.465,7.323l-7.44,10.512c-2.444-2.204-5.751-4.016-9.923-5.434
		C1118.815,1512.024,1114.7,1511.315,1110.644,1511.315z"/>
	<path fill="#FFFFFF" d="M1224.806,1532.694c2.362-3.227,3.545-6.496,3.545-9.803c0-3.309-1.262-6.123-3.78-8.447
		c-2.521-2.322-5.71-3.485-9.567-3.485c-6.775,0-12.403,3.468-16.892,10.396l-11.221-6.498c3.619-5.434,7.618-9.526,11.99-12.285
		c4.369-2.754,10-4.134,16.89-4.134s12.934,2.185,18.132,6.556c5.198,4.371,7.796,10.336,7.796,17.897
		c0,4.251-1.103,8.308-3.307,12.165c-2.206,3.86-6.26,8.822-12.167,14.883l-19.372,19.728h37.445v13.347h-56.461v-11.812
		l25.042-25.162C1218.467,1540.373,1222.444,1535.924,1224.806,1532.694z"/>
	<path fill="#FFFFFF" d="M1265.913,1572.326c-5.592-7.755-8.387-18.132-8.387-31.127c0-12.994,2.795-23.366,8.387-31.124
		c5.59-7.755,14.016-11.636,25.277-11.636c11.261,0,19.687,3.881,25.279,11.636c5.59,7.758,8.387,18.13,8.387,31.124
		c0,12.994-2.797,23.371-8.387,31.127c-5.592,7.758-14.018,11.634-25.279,11.634
		C1279.929,1583.96,1271.503,1580.084,1265.913,1572.326z M1275.894,1518.874c-3.268,5.672-4.903,13.112-4.903,22.326
		c0,9.214,1.634,16.657,4.903,22.326c3.266,5.669,8.366,8.505,15.297,8.505c6.928,0,11.99-2.814,15.179-8.447
		c3.189-5.628,4.785-13.09,4.785-22.384c0-9.291-1.596-16.753-4.785-22.384s-8.25-8.445-15.179-8.445
		C1284.26,1510.371,1279.16,1513.204,1275.894,1518.874z"/>
	<path fill="#FFFFFF" d="M1335.249,1500.448h30.004v82.567h-13.23v-70.164h-16.774V1500.448z"/>
	<path fill="#FFFFFF" d="M1434.237,1500.33v12.639h-34.847v20.317c3.465-1.889,7.402-2.836,11.812-2.836
		c7.717,0,14.371,2.324,19.964,6.969c5.59,4.648,8.387,10.947,8.387,18.901c0,7.955-2.915,14.549-8.743,19.786
		c-5.828,5.237-12.992,7.854-21.497,7.854c-11.103,0-19.964-3.701-26.577-11.103l7.44-10.158c0.63,0.632,1.478,1.379,2.54,2.245
		c1.062,0.868,3.249,2.028,6.556,3.485c3.307,1.456,6.928,2.185,10.867,2.185c3.937,0,7.52-1.18,10.75-3.545
		c3.228-2.362,4.843-5.806,4.843-10.334c0-4.528-1.714-8.034-5.138-10.514c-3.427-2.48-7.758-3.72-12.994-3.72
		s-10.219,1.3-14.943,3.898l-5.905-6.378v-39.689H1434.237z"/>
	<g>
		<polygon fill="#FFFFFF" points="1024.204,845.011 941.787,968.638 1106.622,968.638 		"/>
		<polygon fill="#FFFFFF" points="1024.204,1245.745 941.787,979.16 1106.622,979.16 		"/>
		<polygon fill="#FFFFFF" points="1037.063,1245.745 1119.481,979.16 1297.176,979.16 		"/>
		<polygon fill="#FFFFFF" points="1012.104,1245.745 929.687,979.16 751.991,979.16 		"/>
		<polygon fill="#FFFFFF" points="1214.932,845.011 1132.515,968.638 1297.35,968.638 		"/>
		<polygon fill="#FFFFFF" points="834.409,845.011 751.991,968.638 916.826,968.638 		"/>
		<polygon fill="#FFFFFF" points="1119.481,968.638 1201.898,845.011 1037.063,845.011 		"/>
		<polygon fill="#FFFFFF" points="929.511,968.638 1011.929,845.011 847.094,845.011 		"/>
		<polygon fill="#FFFFFF" points="1134.786,1340.352 913.091,1340.352 1024.204,1261.998 		"/>
		<path fill="#FFFFFF" d="M1203.327,1161.373h-121.905v-24h121.905c46.714,0,83.322-13.291,108.81-39.504
			c30.751-31.626,38.037-74.382,39.739-94.709h-189.467v-24h213.634l0.327,11.663c0.084,2.993,1.5,73.869-47.026,123.777
			C1299.167,1145.636,1256.769,1161.373,1203.327,1161.373z"/>
		<path fill="#FFFFFF" d="M966.636,1161.373H844.729c-53.44,0-95.839-15.736-126.016-46.772
			c-48.526-49.907-47.111-120.784-47.027-123.777l0.327-11.663h213.634v24H696.212c1.753,20.399,9.129,63.371,39.855,94.86
			c25.48,26.112,62.039,39.353,108.662,39.353h121.906V1161.373z"/>
	</g>
</g>
</svg>
