<?xml version="1.0" encoding="utf-8"?>
<!-- Generator: Adobe Illustrator 17.0.0, SVG Export Plug-In . SVG Version: 6.00 Build 0)  -->
<!DOCTYPE svg PUBLIC "-//W3C//DTD SVG 1.1//EN" "http://www.w3.org/Graphics/SVG/1.1/DTD/svg11.dtd">
<svg version="1.1" id="Layer_1" xmlns="http://www.w3.org/2000/svg" xmlns:xlink="http://www.w3.org/1999/xlink" x="0px" y="0px"
	 width="765.151px" height="1079.735px" viewBox="0 0 765.151 1079.735" enable-background="new 0 0 765.151 1079.735"
	 xml:space="preserve">
<g>
	<polygon fill="#174F75" points="29.215,541.327 399.542,1079.735 764.868,541.327 399.542,0 	"/>
	<rect x="412.455" y="106.517" fill="#286384" width="55.831" height="55.831"/>
	<rect x="412.455" y="187.97" fill="#286384" width="55.831" height="55.831"/>
	<rect x="412.455" y="350.875" fill="#286384" width="55.831" height="55.831"/>
	<rect x="412.455" y="432.327" fill="#286384" width="55.831" height="55.831"/>
	<rect x="412.455" y="513.78" fill="#286384" width="55.831" height="55.831"/>
	<rect x="412.455" y="595.232" fill="#286384" width="55.831" height="55.831"/>
	<rect x="412.455" y="676.685" fill="#286384" width="55.831" height="55.831"/>
	<rect x="412.455" y="758.137" fill="#286384" width="55.831" height="55.831"/>
	<rect x="412.455" y="839.59" fill="#286384" width="55.831" height="55.831"/>
	<polygon fill="#286384" points="412.455,25.065 412.455,80.895 454.136,80.895 416.457,25.065 	"/>
	<polygon fill="#286384" points="493.749,162.348 509.105,162.348 493.749,139.592 	"/>
	<rect x="493.748" y="350.875" fill="#286384" width="55.831" height="55.831"/>
	<rect x="493.748" y="432.327" fill="#286384" width="55.831" height="55.831"/>
	<rect x="493.748" y="513.78" fill="#286384" width="55.831" height="55.831"/>
	<rect x="493.748" y="595.232" fill="#286384" width="55.831" height="55.831"/>
	<rect x="493.748" y="676.685" fill="#286384" width="55.831" height="55.831"/>
	<rect x="250.379" y="350.875" fill="#286384" width="55.831" height="55.831"/>
	<rect x="250.379" y="432.327" fill="#286384" width="55.831" height="55.831"/>
	<rect x="250.379" y="513.78" fill="#286384" width="55.831" height="55.831"/>
	<rect x="250.379" y="595.232" fill="#286384" width="55.831" height="55.831"/>
	<rect x="250.379" y="676.685" fill="#286384" width="55.831" height="55.831"/>
	<rect x="331.673" y="106.517" fill="#286384" width="55.831" height="55.831"/>
	<rect x="331.673" y="187.97" fill="#286384" width="55.831" height="55.831"/>
	<rect x="331.673" y="350.875" fill="#286384" width="55.831" height="55.831"/>
	<rect x="331.673" y="432.327" fill="#286384" width="55.831" height="55.831"/>
	<rect x="331.673" y="513.78" fill="#286384" width="55.831" height="55.831"/>
	<rect x="331.673" y="595.232" fill="#286384" width="55.831" height="55.831"/>
	<rect x="331.673" y="676.685" fill="#286384" width="55.831" height="55.831"/>
	<rect x="331.673" y="758.137" fill="#286384" width="55.831" height="55.831"/>
	<rect x="331.673" y="839.59" fill="#286384" width="55.831" height="55.831"/>
	<polygon fill="#286384" points="526.397,187.97 493.749,187.97 493.749,243.8 549.579,243.8 549.579,222.32 	"/>
	<polygon fill="#286384" points="306.209,162.348 306.209,136.429 288.478,162.348 	"/>
	<polygon fill="#286384" points="250.379,243.8 306.209,243.8 306.209,187.97 270.95,187.97 250.379,218.039 	"/>
	<polygon fill="#286384" points="344.2,80.895 387.503,80.895 387.503,25.065 382.395,25.065 	"/>
	<polygon fill="#6EB7CE" points="322.684,804.459 304.919,874.812 494.657,874.812 480.444,804.459 	"/>
	<path fill="#6EB7CE" d="M765.151,542.289L605.183,304.838H60.209C43.552,304.838,30,318.39,30,335.047v370.509h623.966
		L765.151,542.289z"/>
	<path fill="#3A86A9" d="M653.966,705.556H30V335.047c0-16.657,13.552-30.209,30.209-30.209h544.974l-20.211-30H60.209
		C27.01,274.838,0,301.848,0,335.047v410.736c0,33.199,27.01,60.209,60.209,60.209h525.36L653.966,705.556z"/>
	<path fill="#98D7E5" d="M603.52,302.37c-186.059,0-515.233,0-538.563,0c-32.652,0-38.543,26.974-38.543,26.974v376.212
		l626.107-330.451L603.52,302.37z"/>
	<polygon fill="#FFBA4D" points="328.005,386.288 328.005,618.93 685.893,618.93 685.893,424.642 660.055,386.288 	"/>
	<polygon fill="#FCD683" points="649.583,370.745 328.005,370.745 328.005,386.288 660.055,386.288 	"/>
	<polygon fill="#98D7E5" points="297.81,874.812 290.705,895.42 508.87,895.42 501.764,874.812 	"/>
	<g>
		<circle fill="#98D7E5" cx="399.788" cy="755.244" r="17.036"/>
	</g>
	<g>
		<rect x="100.327" y="321.85" fill="#FCD683" width="432.234" height="345.915"/>
	</g>
	<g>
		<rect x="100.326" y="317.57" fill="#FFBA4D" width="432.234" height="23.211"/>
	</g>
	<g>
		<circle fill="#FFFFFF" cx="120.364" cy="328.949" r="5.206"/>
	</g>
	<g>
		<circle fill="#FFFFFF" cx="135.034" cy="328.949" r="5.206"/>
	</g>
	<g>
		<circle fill="#FFFFFF" cx="150.145" cy="328.949" r="5.206"/>
	</g>
	<g>
		<rect x="170.508" y="375.119" fill="#FFFFFF" width="305.263" height="10.289"/>
		<rect x="170.508" y="617.441" fill="#FFFFFF" width="305.263" height="10.289"/>
		<rect x="170.509" y="496.28" fill="#FFFFFF" width="196.392" height="10.289"/>
		<g>
			<rect x="170.51" y="556.861" fill="#FFFFFF" width="46.549" height="10.289"/>
			<rect x="228.455" y="556.861" fill="#FFFFFF" width="89.278" height="10.289"/>
		</g>
		<g>
			<rect x="170.51" y="526.57" fill="#FFFFFF" width="46.549" height="10.289"/>
			<rect x="228.455" y="526.57" fill="#FFFFFF" width="56.5" height="10.289"/>
			<rect x="294.889" y="526.571" fill="#FFFFFF" width="92.461" height="10.289"/>
		</g>
		<rect x="170.509" y="435.7" fill="#FFFFFF" width="126.009" height="10.289"/>
		<rect x="170.509" y="587.151" fill="#FFFFFF" width="126.009" height="10.289"/>
		<rect x="170.509" y="465.99" fill="#FFFFFF" width="162.443" height="10.289"/>
		<g>
			<rect x="170.51" y="405.409" fill="#FFFFFF" width="65.28" height="10.289"/>
			<rect x="246.035" y="405.41" fill="#FFFFFF" width="100.964" height="10.289"/>
			<rect x="356.857" y="405.409" fill="#FFFFFF" width="60.989" height="10.289"/>
		</g>
	</g>
</g>
</svg>
