<?xml version="1.0" encoding="utf-8"?>
<!-- Generator: Adobe Illustrator 17.0.0, SVG Export Plug-In . SVG Version: 6.00 Build 0)  -->
<!DOCTYPE svg PUBLIC "-//W3C//DTD SVG 1.1//EN" "http://www.w3.org/Graphics/SVG/1.1/DTD/svg11.dtd">
<svg version="1.1" id="Layer_1" xmlns="http://www.w3.org/2000/svg" xmlns:xlink="http://www.w3.org/1999/xlink" x="0px" y="0px"
	 width="735.653px" height="1071.901px" viewBox="0 0 735.653 1071.901" enable-background="new 0 0 735.653 1071.901"
	 xml:space="preserve">
<g>
	<polygon fill="#286384" points="0,536.494 367.754,0 735.653,536.494 368.327,1071.901 	"/>
	<polygon fill="#174F75" points="1.638,538.848 250.029,253.856 368.334,1071.713 	"/>
	<polygon fill="#174F75" points="111.896,484.848 236.399,302.856 362.447,141.856 395.048,751.856 	"/>
	<polygon fill="#98D7E5" points="499.432,503.856 362.447,503.856 362.447,141.856 499.432,161.856 	"/>
	<polygon fill="#3A86A9" points="629.408,503.856 492.423,503.856 492.423,161.856 629.408,141.856 	"/>
	<polygon fill="#3A86A9" points="734.229,538.848 733.273,537.451 735.653,537.451 735.653,253.856 250.029,253.856 
		250.029,899.977 367.934,1071.395 	"/>
	<polygon fill="#98D7E5" points="446.864,957.856 408.864,1015.856 408.864,279.856 446.864,279.856 	"/>
	<polygon fill="#98D7E5" points="512.282,862.856 474.282,917.856 474.282,279.856 512.282,279.856 	"/>
	<polygon fill="#98D7E5" points="577.699,768.856 539.699,822.856 539.699,279.856 577.699,279.856 	"/>
	<polygon fill="#98D7E5" points="643.116,671.856 605.116,726.856 605.116,279.856 643.116,279.856 	"/>
	<polygon fill="#98D7E5" points="708.534,576.856 670.534,631.856 670.534,279.856 708.534,279.856 	"/>
	<polygon fill="#98D7E5" points="278.029,940.685 316.029,995.933 316.029,279.856 278.029,279.856 	"/>
	<polygon fill="#FFBA4D" points="493.282,162.787 362.767,142.273 628.796,142.273 	"/>
	<rect x="362.447" y="235.856" fill="#FCD683" width="129.976" height="18"/>
	<rect x="278.459" y="279.856" fill="#FCD683" width="37.571" height="18"/>
	<rect x="343.661" y="406.856" fill="#FCD683" width="37.571" height="18"/>
	<rect x="343.661" y="819.856" fill="#FFBA4D" width="37.571" height="18"/>
	<rect x="409.079" y="347.856" fill="#FCD683" width="37.571" height="18"/>
	<rect x="343.447" y="511.856" fill="#FCD683" width="103.203" height="18"/>
	<rect x="343.447" y="850.856" fill="#FCD683" width="103.203" height="18"/>
	<polygon fill="#FCD683" points="588.262,751.856 540.059,751.856 540.059,769.856 576.262,769.856 	"/>
	<rect x="474.496" y="452.856" fill="#FCD683" width="37.571" height="18"/>
	<rect x="474.496" y="576.856" fill="#FCD683" width="37.571" height="18"/>
	<rect x="670.748" y="452.856" fill="#FCD683" width="37.571" height="18"/>
	<rect x="605.622" y="624.856" fill="#FCD683" width="37.571" height="18"/>
	<rect x="540.205" y="397.856" fill="#FCD683" width="102.911" height="18"/>
	<polygon fill="#FCD683" points="636.116,681.856 540.205,681.856 540.205,699.856 624.116,699.856 	"/>
	<rect x="605.622" y="338.856" fill="#FCD683" width="37.571" height="18"/>
	<rect x="670.749" y="304.856" fill="#FCD683" width="37.571" height="18"/>
	<rect x="492.423" y="235.856" fill="#FFBA4D" width="136.985" height="18"/>
	<rect x="278.459" y="322.856" fill="#FFBA4D" width="168.405" height="18"/>
	<rect x="409.079" y="424.856" fill="#FFBA4D" width="168.405" height="18"/>
	<rect x="278.244" y="698.856" fill="#FFBA4D" width="168.405" height="18"/>
	<rect x="278.244" y="642.856" fill="#FFBA4D" width="168.405" height="18"/>
	<rect x="409.079" y="543.856" fill="#FFBA4D" width="299.455" height="18"/>
	<polygon fill="#98D7E5" points="381.447,1051.749 381.447,279.856 343.447,279.856 343.447,1035.794 367.934,1071.395 	"/>
</g>
</svg>
